<svg id="_Layer_" data-name="&lt;Layer&gt;" xmlns="http://www.w3.org/2000/svg" viewBox="0 0 260.74 136.97"><defs><style>.cls-1{fill:#429694;opacity:0.3;}.cls-2{fill:#069;opacity:0.1;}.cls-3{fill:#131312;}.cls-4,.cls-5,.cls-7,.cls-8{fill:none;}.cls-4{stroke:#000;}.cls-4,.cls-6,.cls-7{stroke-width:0.25px;}.cls-6{fill:#ebf2f2;stroke:#090a0a;}.cls-7,.cls-8{stroke:#069;stroke-miterlimit:10;}.cls-7{stroke-dasharray:1 1;}</style></defs><path class="cls-1" d="M90.17,112.67H144l0,0V69l0-.12c-4-4.52-7.36-9-10.48-13.28-15-20.47-29.3-21.37-43.42-13.39l.11.49v69.78Z" transform="translate(0 -2.43)"/><path class="cls-2" d="M241,111.34c-67.46-5.25-91.22-33.59-107.3-55.58C88.91-5.4,49.88,108.19,5.15,111.34l0,1.45h235.8Z" transform="translate(0 -2.43)"/><path class="cls-3" d="M63.23,112.64" transform="translate(0 -2.43)"/><line class="cls-3" x1="90.14" y1="110.29" x2="91.14" y2="110.29"/><line class="cls-4" y1="110.29" x2="254.62" y2="110.29"/><path d="M253.28,112.72l-1.65-2.7.1-.06,4.4,1.75,4.61,1-4.61,1-4.4,1.75-.1,0Z" transform="translate(0 -2.43)"/><path d="M55.56,118a6.61,6.61,0,0,1,.26-2,2.62,2.62,0,0,1,.78-1.2,2,2,0,0,1,1.3-.42,2.07,2.07,0,0,1,1,.24,1.8,1.8,0,0,1,.71.66,3.75,3.75,0,0,1,.45,1.07,6.94,6.94,0,0,1,.16,1.69,6.59,6.59,0,0,1-.26,2,2.53,2.53,0,0,1-.77,1.2,2,2,0,0,1-1.3.42,2,2,0,0,1-1.63-.74A4.71,4.71,0,0,1,55.56,118Zm.91,0a4.45,4.45,0,0,0,.41,2.35,1.2,1.2,0,0,0,1,.58,1.18,1.18,0,0,0,1-.59,6.76,6.76,0,0,0,0-4.69,1.22,1.22,0,0,0-1-.58,1.12,1.12,0,0,0-1,.51A4.61,4.61,0,0,0,56.47,118Z" transform="translate(0 -2.43)"/><line class="cls-4" x1="63.47" y1="136.97" x2="63.47" y2="8.46"/><path d="M63.47,12.24l-2.7,1.65-.06-.1,1.75-4.4c.34-1.54.68-3.07,1-4.61l1,4.61,1.75,4.4,0,.1Z" transform="translate(0 -2.43)"/><path class="cls-5" d="M99.51,112.55" transform="translate(0 -2.43)"/><path d="M255.29,121.57l2.26-2.63-1.29-2.55h1l.44.92c.16.34.31.67.44,1l1.5-1.91h1.07L258.51,119l1.31,2.56h-1l-.52-1c-.11-.23-.24-.51-.37-.84l-1.55,1.89Z" transform="translate(0 -2.43)"/><circle class="cls-6" cx="63.4" cy="110.33" r="1.32"/><line class="cls-7" x1="90.2" y1="110.15" x2="90.2" y2="40.37"/><path class="cls-8" d="M5,111.27c44.74-3.15,83.77-116.74,128.5-55.58,16.09,22,39.85,50.33,107.31,55.58" transform="translate(0 -2.43)"/><line class="cls-7" x1="144.02" y1="110.32" x2="144.02" y2="66.67"/><path d="M90.87,120.93a3.8,3.8,0,0,1-.88.58,2.31,2.31,0,0,1-.91.18,1.58,1.58,0,0,1-1.15-.42,1.44,1.44,0,0,1-.44-1.09,1.48,1.48,0,0,1,.19-.76,1.52,1.52,0,0,1,.53-.54,2.22,2.22,0,0,1,.8-.29,8.35,8.35,0,0,1,1.13-.09,4.43,4.43,0,0,0,1.19-.18,2.26,2.26,0,0,0,.11-.6.56.56,0,0,0-.23-.48,1.36,1.36,0,0,0-.9-.25,1.53,1.53,0,0,0-.91.25,1.37,1.37,0,0,0-.51.7l-.9-.08a2.36,2.36,0,0,1,.87-1.18,2.6,2.6,0,0,1,1.5-.41,2.3,2.3,0,0,1,1.52.46,1.07,1.07,0,0,1,.43.89,4.64,4.64,0,0,1-.12,1l-.29,1.29a4.92,4.92,0,0,0-.14,1,3.45,3.45,0,0,0,.11.7H91A3.12,3.12,0,0,1,90.87,120.93Zm.33-2a2.09,2.09,0,0,1-.4.12l-.71.08a6.07,6.07,0,0,0-1.09.17.91.91,0,0,0-.64.85.82.82,0,0,0,.26.61,1,1,0,0,0,.73.23,1.65,1.65,0,0,0,.85-.23,1.71,1.71,0,0,0,.64-.64A4,4,0,0,0,91.2,118.94Z" transform="translate(0 -2.43)"/><path d="M141.83,121.57l1.49-7.16h.88l-.53,2.56a2.84,2.84,0,0,1,.76-.54,1.64,1.64,0,0,1,.72-.16,1.56,1.56,0,0,1,1.21.54,2.31,2.31,0,0,1,.48,1.58,3.87,3.87,0,0,1-.19,1.26,3.59,3.59,0,0,1-.48,1,3.24,3.24,0,0,1-.6.62,2.15,2.15,0,0,1-.63.34,1.75,1.75,0,0,1-.62.12,1.54,1.54,0,0,1-.9-.27,1.72,1.72,0,0,1-.61-.83l-.21,1Zm1.3-2.13v.17a1.41,1.41,0,0,0,.32,1,1,1,0,0,0,.79.35,1.28,1.28,0,0,0,.85-.33,2.35,2.35,0,0,0,.64-1,3.91,3.91,0,0,0,.25-1.27,1.5,1.5,0,0,0-.32-1,1,1,0,0,0-.78-.36,1.26,1.26,0,0,0-.88.37,2.84,2.84,0,0,0-.67,1.14A3.1,3.1,0,0,0,143.13,119.44Z" transform="translate(0 -2.43)"/><path d="M43.59,6.19a.45.45,0,0,1-.36.17.49.49,0,0,1-.33-.13.45.45,0,0,1-.13-.3,1.56,1.56,0,0,1,.11-.41.16.16,0,0,0-.07-.13.24.24,0,0,0-.16,0c-.3,0-.54.31-.74.94a16.83,16.83,0,0,0-.37,1.84h1.31l-.09.39H41.43l-1.12,3.83a7.93,7.93,0,0,1-1,2.45,1.77,1.77,0,0,1-1.54.94,1.09,1.09,0,0,1-.7-.23.66.66,0,0,1-.27-.51.62.62,0,0,1,.11-.33.41.41,0,0,1,.35-.15.49.49,0,0,1,.33.13.43.43,0,0,1,.08.54.37.37,0,0,0-.06.15.09.09,0,0,0,.07.09.39.39,0,0,0,.17,0c.33,0,.61-.27.84-.79a5.75,5.75,0,0,0,.34-1.13l1.39-5H39.39l.08-.39H40.6a7.7,7.7,0,0,1,.72-2,1.73,1.73,0,0,1,1.47-1,1,1,0,0,1,.66.23.66.66,0,0,1,.27.52A.61.61,0,0,1,43.59,6.19Z" transform="translate(0 -2.43)"/><path d="M49.79,12.5a.51.51,0,0,1,.28-.09l.14,0a.43.43,0,0,1,.16.07l.2.11.08,0h.09a.36.36,0,0,0,.22-.07,6.07,6.07,0,0,0,.41-.52c.14-.19.47-.66,1-1.4,0,0,0-.24-.13-.63s-.17-.72-.25-1a1.86,1.86,0,0,0-.2-.54.35.35,0,0,0-.32-.14,1.65,1.65,0,0,0-.33.06l-.33.08,0-.18.65-.22A4,4,0,0,1,51.86,8a1.29,1.29,0,0,1,.36,0,.47.47,0,0,1,.37.14,2.31,2.31,0,0,1,.32.93l.12.67a11.14,11.14,0,0,1,.82-1.14,2.76,2.76,0,0,1,.5-.45.94.94,0,0,1,.45-.14.73.73,0,0,1,.32.06.39.39,0,0,1,.22.4.45.45,0,0,1-.11.31.4.4,0,0,1-.29.11l-.12,0-.12,0-.16-.07-.12-.05-.09,0c-.17,0-.42.23-.73.69a3.36,3.36,0,0,0-.47.78,5.51,5.51,0,0,0,.11.58q.1.48.24,1a4.39,4.39,0,0,0,.2.7c.09.21.19.32.3.32a.43.43,0,0,0,.32-.18c.11-.12.28-.33.5-.63L55,12a5.56,5.56,0,0,1-.52.78,1.39,1.39,0,0,1-1,.61.55.55,0,0,1-.47-.28,2.29,2.29,0,0,1-.19-.54l-.36-1.45-1.2,1.58a4.59,4.59,0,0,1-.55.55.77.77,0,0,1-.47.14.53.53,0,0,1-.51-.24.54.54,0,0,1-.07-.29A.37.37,0,0,1,49.79,12.5Z" transform="translate(0 -2.43)"/><path d="M48.23,2.76a7,7,0,0,0-1.42,2.72,16.36,16.36,0,0,0-.42,4.14,16.39,16.39,0,0,0,.42,4.15,7,7,0,0,0,1.42,2.7L48,16.8a8.06,8.06,0,0,1-2-3.08,12,12,0,0,1-.7-4.1,11.74,11.74,0,0,1,.71-4.1A8,8,0,0,1,48,2.43Z" transform="translate(0 -2.43)"/><path d="M56.73,2.76,57,2.43a8,8,0,0,1,1.95,3.09,11.81,11.81,0,0,1,.7,4.1,11.68,11.68,0,0,1-.7,4.09A8,8,0,0,1,57,16.8l-.23-.33a6.9,6.9,0,0,0,1.42-2.69,16.42,16.42,0,0,0,.42-4.16,16.48,16.48,0,0,0-.42-4.16A7,7,0,0,0,56.73,2.76Z" transform="translate(0 -2.43)"/><path d="M95.77,79.84a.77.77,0,0,0,.39-.1.92.92,0,0,0,.28-.5l1-3.62.08-.31s0-.07,0-.1a.28.28,0,0,0,0-.09.27.27,0,0,0-.13-.26,1.1,1.1,0,0,0-.45-.09v-.13h2a2.79,2.79,0,0,1,1,.15,1.08,1.08,0,0,1,.73,1.09,1.4,1.4,0,0,1-.29.87,2.4,2.4,0,0,1-2,.73l-.35,0-.33,0L97.31,79a2.07,2.07,0,0,0-.06.24,1.39,1.39,0,0,0,0,.24.3.3,0,0,0,.12.28,1,1,0,0,0,.43.09V80h-2ZM98,77.16h.28a2.23,2.23,0,0,0,.95-.16,1.18,1.18,0,0,0,.64-1.18.82.82,0,0,0-.29-.73,1.25,1.25,0,0,0-.76-.21,1.07,1.07,0,0,0-.29,0,.26.26,0,0,0-.14.19l-.58,2Z" transform="translate(0 -2.43)"/><path d="M107.69,76.51a.7.7,0,0,1,.15.24l0,0,.09-.3,0-.07a.08.08,0,0,1,.06,0l.46,0h.05a.11.11,0,0,1,0,0,.45.45,0,0,0,0,.08l0,.09L108.09,78c-.09.31-.16.58-.22.81a5.56,5.56,0,0,0-.15.7.11.11,0,0,0,0,.08l.07,0a.12.12,0,0,0,.08,0l.11-.07.07-.06.08-.06.1-.1.26-.25.09.08a4.47,4.47,0,0,1-.68.72.82.82,0,0,1-.49.19.3.3,0,0,1-.24-.1.45.45,0,0,1-.08-.26,2,2,0,0,1,.06-.41c0-.18.07-.33.1-.46,0,.08-.13.2-.24.35a2.2,2.2,0,0,1-.42.45,1.93,1.93,0,0,1-.56.37,1.4,1.4,0,0,1-.39.07.81.81,0,0,1-.59-.27,1,1,0,0,1-.26-.75,2.77,2.77,0,0,1,.76-1.75,2.17,2.17,0,0,1,1.62-1A.72.72,0,0,1,107.69,76.51Zm-.13.16a.43.43,0,0,0-.32-.14c-.44,0-.85.33-1.22,1a3.13,3.13,0,0,0-.5,1.52.67.67,0,0,0,.14.46.43.43,0,0,0,.34.15c.4,0,.79-.33,1.16-1a3.14,3.14,0,0,0,.53-1.6A.57.57,0,0,0,107.56,76.67Z" transform="translate(0 -2.43)"/><path d="M114.94,79l-4.07-1.88v-.5l4.07-1.88v.5l-3.55,1.63,3.55,1.63Zm0,1h-4.07v-.45h4.07Z" transform="translate(0 -2.43)"/><path d="M119.83,79.84a1.74,1.74,0,0,0,.44,0,.27.27,0,0,0,.19-.26.67.67,0,0,0,0-.18,1,1,0,0,0-.07-.23l-.54-1.35-1.23,1.4-.13.18a.49.49,0,0,0,0,.2.23.23,0,0,0,.17.25,1.36,1.36,0,0,0,.36,0V80h-1.76v-.13a1.41,1.41,0,0,0,.72-.43,8.3,8.3,0,0,0,.74-.8l1-1.18-.86-2.17a.76.76,0,0,0-.25-.37,1.64,1.64,0,0,0-.5-.12v-.13h2.16v.13a1.38,1.38,0,0,0-.46.11.23.23,0,0,0-.13.24.31.31,0,0,0,0,.1l0,.12.56,1.43,1.19-1.38a.64.64,0,0,0,.11-.16.35.35,0,0,0,0-.17.21.21,0,0,0-.1-.21,2.06,2.06,0,0,0-.4-.08v-.13h1.71v.13a1.67,1.67,0,0,0-.5.25,7.23,7.23,0,0,0-.65.67l-.57.64-.69.8.84,2.11a.94.94,0,0,0,.32.47,1.06,1.06,0,0,0,.53.13V80h-2.24Z" transform="translate(0 -2.43)"/><path d="M129,79,125,77.13v-.5L129,74.75v.5l-3.54,1.63L129,78.51Zm0,1H125v-.45H129Z" transform="translate(0 -2.43)"/><path d="M132.26,75.18a.44.44,0,0,0,0-.15.57.57,0,0,0,0-.12.16.16,0,0,0,0-.1.18.18,0,0,0-.12-.08h-.1l-.28,0v-.14l.28,0,.4-.06.25,0a1.8,1.8,0,0,1,.3,0l0,0a.05.05,0,0,1,0,0v.06l-.81,3a5.78,5.78,0,0,1,.6-.74,1.35,1.35,0,0,1,.91-.4.92.92,0,0,1,.7.29,1,1,0,0,1,.26.72,2.61,2.61,0,0,1-.87,1.86,2.47,2.47,0,0,1-1.74.84,1.61,1.61,0,0,1-.76-.18c-.23-.12-.33-.22-.31-.29ZM133.47,79a2.77,2.77,0,0,0,.56-1.51.74.74,0,0,0-.17-.5.52.52,0,0,0-.41-.18c-.42,0-.82.37-1.21,1.13a3.87,3.87,0,0,0-.5,1.64.32.32,0,0,0,.1.25.47.47,0,0,0,.32.09A1.66,1.66,0,0,0,133.47,79Z" transform="translate(0 -2.43)"/><path d="M103.84,72.84a4.9,4.9,0,0,0-1,1.85,13.9,13.9,0,0,0,0,5.65,4.86,4.86,0,0,0,1,1.84l-.17.23a5.55,5.55,0,0,1-1.32-2.1,8.38,8.38,0,0,1,0-5.59,5.52,5.52,0,0,1,1.32-2.11Z" transform="translate(0 -2.43)"/><path d="M135.79,72.84l.16-.23a5.65,5.65,0,0,1,1.33,2.11,8,8,0,0,1,.48,2.8,7.92,7.92,0,0,1-.48,2.78A5.65,5.65,0,0,1,136,82.41l-.16-.23a4.68,4.68,0,0,0,1-1.83,14,14,0,0,0,0-5.67A4.72,4.72,0,0,0,135.79,72.84Z" transform="translate(0 -2.43)"/></svg>